<svg xmlns="http://www.w3.org/2000/svg" viewBox="0 0 48 48" width="48" height="48">
  <defs>
    <linearGradient id="favBg" x1="0%" y1="0%" x2="0%" y2="100%">
      <stop offset="0%" stop-color="#1e3a8a"/>
      <stop offset="100%" stop-color="#0c4a6e"/>
    </linearGradient>
    <linearGradient id="favWall" x1="0%" y1="0%" x2="100%" y2="100%">
      <stop offset="0%" stop-color="#fcd34d"/>
      <stop offset="100%" stop-color="#f59e0b"/>
    </linearGradient>
    <linearGradient id="favWave" x1="0%" y1="0%" x2="0%" y2="100%">
      <stop offset="0%" stop-color="#38bdf8"/>
      <stop offset="100%" stop-color="#0284c7"/>
    </linearGradient>
    <linearGradient id="favRing" x1="0%" y1="0%" x2="100%" y2="100%">
      <stop offset="0%" stop-color="#fcd34d"/>
      <stop offset="100%" stop-color="#d97706"/>
    </linearGradient>
  </defs>
  <!-- 外圈 -->
  <circle cx="24" cy="24" r="23" fill="none" stroke="url(#favRing)" stroke-width="1.5"/>
  <circle cx="24" cy="24" r="21" fill="url(#favBg)"/>
  <!-- 长城 -->
  <path d="M14 22 L14 19 L16 19 L16 17 L18 17 L18 19 L20 19 L20 17 L22 17 L22 19 L24 19 L24 17 L26 17 L26 19 L28 19 L28 17 L30 17 L30 19 L32 19 L32 17 L34 17 L34 19 L34 22 Z" fill="url(#favWall)"/>
  <rect x="22" y="14" width="4" height="3" rx="0.3" fill="url(#favWall)"/>
  <!-- 海浪 -->
  <path d="M14 22 Q19 20 24 22 T34 22 L34 28 L14 28 Z" fill="url(#favWave)" opacity="0.9"/>
  <path d="M14 28 Q19 26 24 28 T34 28 L34 34 L14 34 Z" fill="url(#favWave)"/>
  <!-- 沙滩线 -->
  <path d="M14 34 Q19 33 24 34 T34 34" stroke="url(#favRing)" stroke-width="1" fill="none" stroke-linecap="round"/>
</svg>
