<svg xmlns="http://www.w3.org/2000/svg" viewBox="0 0 48 48" width="48" height="48">
  <defs>
    <radialGradient id="favSun" cx="50%" cy="50%" r="50%">
      <stop offset="0%" stop-color="#fef08a"/>
      <stop offset="60%" stop-color="#fbbf24"/>
      <stop offset="100%" stop-color="#f97316"/>
    </radialGradient>
    <linearGradient id="favWall" x1="0%" y1="0%" x2="100%" y2="100%">
      <stop offset="0%" stop-color="#fbbf24"/>
      <stop offset="100%" stop-color="#dc2626"/>
    </linearGradient>
    <linearGradient id="favSea" x1="0%" y1="0%" x2="0%" y2="100%">
      <stop offset="0%" stop-color="#0ea5e9"/>
      <stop offset="100%" stop-color="#0c4a6e"/>
    </linearGradient>
    <linearGradient id="favBg" x1="0%" y1="0%" x2="0%" y2="100%">
      <stop offset="0%" stop-color="#1e3a8a"/>
      <stop offset="100%" stop-color="#082f49"/>
    </linearGradient>
    <linearGradient id="favSand" x1="0%" y1="0%" x2="0%" y2="100%">
      <stop offset="0%" stop-color="#fde68a"/>
      <stop offset="100%" stop-color="#f59e0b"/>
    </linearGradient>
  </defs>
  <rect x="2" y="2" width="44" height="44" rx="12" fill="url(#favBg)"/>
  <!-- 旭日 -->
  <circle cx="24" cy="15" r="7" fill="url(#favSun)"/>
  <!-- 长城 -->
  <path d="M8 22 L8 18 L11 18 L11 15 L14 15 L14 18 L17 18 L17 15 L20 15 L20 18 L24 18 L24 15 L28 15 L28 18 L31 18 L31 15 L34 15 L34 18 L37 18 L37 15 L40 15 L40 18 L40 22 Z" fill="url(#favWall)"/>
  <rect x="21" y="11" width="6" height="4" rx="0.5" fill="url(#favWall)"/>
  <!-- 海浪 -->
  <path d="M4 24 Q12 21 20 24 T36 24 T44 24 L44 32 L4 32 Z" fill="#06b6d4" opacity="0.7"/>
  <path d="M4 32 Q12 29 20 32 T36 32 T44 32 L44 38 L4 38 Z" fill="url(#favSea)"/>
  <!-- 沙滩 -->
  <path d="M4 38 Q16 36 24 38 T44 38 L44 43 L4 43 Z" fill="url(#favSand)"/>
</svg>
