<svg xmlns="http://www.w3.org/2000/svg" viewBox="0 0 48 48" width="48" height="48">
  <defs>
    <linearGradient id="favBg" x1="0%" y1="0%" x2="0%" y2="100%">
      <stop offset="0%" stop-color="#0c4a6e"/>
      <stop offset="100%" stop-color="#082f49"/>
    </linearGradient>
    <linearGradient id="favWall" x1="0%" y1="0%" x2="100%" y2="100%">
      <stop offset="0%" stop-color="#fbbf24"/>
      <stop offset="100%" stop-color="#dc2626"/>
    </linearGradient>
    <linearGradient id="favWave1" x1="0%" y1="0%" x2="0%" y2="100%">
      <stop offset="0%" stop-color="#06b6d4"/>
      <stop offset="100%" stop-color="#0ea5e9"/>
    </linearGradient>
    <linearGradient id="favWave2" x1="0%" y1="0%" x2="0%" y2="100%">
      <stop offset="0%" stop-color="#0ea5e9"/>
      <stop offset="100%" stop-color="#0369a1"/>
    </linearGradient>
  </defs>
  <rect x="2" y="2" width="44" height="44" rx="12" fill="url(#favBg)"/>
  <!-- 长城 -->
  <path d="M8 24 L8 20 L12 20 L12 16 L16 16 L16 20 L20 20 L20 16 L24 16 L24 20 L28 20 L28 16 L32 16 L32 20 L36 20 L36 16 L40 16 L40 20 L40 24 Z" fill="url(#favWall)"/>
  <rect x="21" y="11" width="6" height="5" rx="0.5" fill="url(#favWall)"/>
  <!-- 海浪 -->
  <path d="M4 24 Q12 20 20 24 T36 24 T44 24 L44 34 L4 34 Z" fill="url(#favWave1)"/>
  <path d="M4 34 Q12 30 20 34 T36 34 T44 34 L44 43 L4 43 Z" fill="url(#favWave2)"/>
</svg>
